<svg xmlns="http://www.w3.org/2000/svg" viewBox="0 0 900 350"><path fill-rule="evenodd" clip-rule="evenodd" fill="#308FA6" d="M748.5 186.833l-10 9.25 8.167 21.096L765 203.083z"/><path fill-rule="evenodd" clip-rule="evenodd" fill="#3AA0BA" d="M762.75 180.833l-15.04-10.096-9.21 25.346 7.021 2.691z"/><path opacity=".15" fill-rule="evenodd" clip-rule="evenodd" fill="#2A2A2A" stroke="#6BCBDC" stroke-width=".216" stroke-miterlimit="2.6131" d="M719.543 282.527l49.153 7.218 53.293-6.189-52.757-7.677z"/><path fill-rule="evenodd" clip-rule="evenodd" fill="#5EC0D9" d="M796.415 192.676l.879 6.013 2.621 7.094 11.63-2.132 4.612-.984-13.996-31.572-3.144 4.002z"/><path fill-rule="evenodd" clip-rule="evenodd" fill="#C3927D" d="M755.854 154.667l2.926 10.808 4.819 12.093 5.071.108 9.509-10.11 1.943-4.249 4.76-9.543-6.103-2.076-20.929 1.05z"/><path fill-rule="evenodd" clip-rule="evenodd" fill="#F5CBB3" d="M788.12 123.161l-2.736-8.843-8.894 38.034 2.358 5.115 2.26.874-3.805 7.037-5.55 8.415 9.81-5.418 3.404-4.052 7.846-18.06-.225-3.527-1.308-1.803-.595-15.619z"/><path fill-rule="evenodd" clip-rule="evenodd" fill="#C3927D" d="M790.319 140.092l2.494 6.171 2.102-3.87-2.284-3.319z"/><path fill-rule="evenodd" clip-rule="evenodd" fill="#494749" d="M791.323 119.688l-3.203 3.473-3.183 12.239 5.105 2.14 3.64-7.641 7.06 1.765 4.045-6.675z"/><path fill-rule="evenodd" clip-rule="evenodd" fill="#6F7273" d="M781.314 106.588l4.07 7.73 2.736 8.843 16.695 1.496-14.453-15.702-3.573-5.64-4.409 1.291z"/><path fill-rule="evenodd" clip-rule="evenodd" fill="#6F7273" d="M802.777 102.913l-17.487-4.74-3.991 3.385 1.081 3.048 22.407 20.383z"/><path fill-rule="evenodd" clip-rule="evenodd" fill="#4F5353" d="M752.768 90.893l3.96 14.098 4.618 8 18.284-1.223 5.754 2.55 17.393-11.405-15.981-11.949z"/><path fill-rule="evenodd" clip-rule="evenodd" fill="#6F7273" d="M743.003 95.959l-1.311 9.153 4.009 6.252 8.143 2.941 10.321-9.127-11.397-14.285z"/><path fill-rule="evenodd" clip-rule="evenodd" fill="#4F5353" d="M736.316 108.163l9.093 19.077 1.694-9.503-1.402-6.373-2.698-15.405z"/><path fill-rule="evenodd" clip-rule="evenodd" fill="#FEE5D6" d="M741.277 152.632l37.571 4.835 6.536-43.149-21.219-9.14-18.464 6.186-.54 5.893z"/><path fill-rule="evenodd" clip-rule="evenodd" fill="#F5CBB3" d="M751.543 119.489l-2.819.068 4 5.793 4.265 8.039 2.376-8.657-2.13-2.61.001-1.788zM761.435 124.861l2.82-2.297 1.203-2.095 5.4-.58 4.867 1.708-7.556 4.128-6.462 8.244z"/><path fill-rule="evenodd" clip-rule="evenodd" fill="#C3927D" d="M759.647 136.118l-2.658-2.729 2.664-.658 2.054 1.238z"/><path fill-rule="evenodd" clip-rule="evenodd" fill="#1F7678" d="M734.513 280.923l26.017.035.102-2.325-4.098-1.677-16.46-.035-5.401 1.418zM777.453 284.513h19.419l.068-2.256-1.438-1.335-13.48-.078-4.432 1.481z"/><path fill-rule="evenodd" clip-rule="evenodd" fill="#349496" d="M746.899 269.741l-12.226 8.598 25.959.294.206-8-3.916-1.972-6.829-.148zM780.872 273.71l-3.282 8.615 19.35-.068-3.254-8.585-2.246-1.987-7.258.173z"/><path fill-rule="evenodd" clip-rule="evenodd" fill="#494749" d="M754.718 229.949l-7.795 21.436-.024 18.356 13.939.892 4.034-12.889 2.765-15.062z"/><path fill-rule="evenodd" clip-rule="evenodd" fill="#4F5353" d="M754.718 229.949l-7.795-2.154v23.59l17.949 6.359 3.897-11.59-1.132-3.472z"/><path fill-rule="evenodd" clip-rule="evenodd" fill="#494749" d="M773.908 234.638l.707 24.542 6.257 14.53 12.814-.038.314-17.569-.553-30.825-7.863-5.616z"/><path fill-rule="evenodd" clip-rule="evenodd" fill="#4F5353" d="M773.908 234.638l-5.241 11.208 5.948 13.334L794 256.103l1.434-26.332-1.987-4.493-7.863-5.616z"/><path fill-rule="evenodd" clip-rule="evenodd" fill="#494749" d="M751.333 228.923l.308 3.59 17.128 13.641 6.245-8.164-.266-4.428-12.11-16.427-2.89.161z"/><path fill-rule="evenodd" clip-rule="evenodd" fill="#308FA6" d="M746.667 217.179l.256 10.616 4.718 4.718 9.007-6.671.129-2.069z"/><path fill-rule="evenodd" clip-rule="evenodd" fill="#5EC0D9" d="M760.648 225.842l14.366 12.148 11.658-14.82 2.436-.991 3.536-4.528-7.545-.692-24.423 5.845z"/><path fill-rule="evenodd" clip-rule="evenodd" fill="#3AA0BA" d="M746.667 217.179l12.137 6.369 3.744-1.487.984-8.043-1.792-1.972 1.73-7.636-1.095-28.535.313-3-3.908-7.4-11.07 5.262-2.189 28.037z"/><path fill-rule="evenodd" clip-rule="evenodd" fill="#308FA6" d="M761.752 200.897l-.794 20.807.319 1.338 1.473.634 27.597-5.177 2.838-2.255 5.107-12.233-.66-4.408-2.632-15.02-9.991-20.241L774 174l-7.125 3.5z"/><path fill-rule="evenodd" clip-rule="evenodd" fill="#5EC0D9" d="M761.726 200.957l7.693-3.111L763.875 174l-2.312-.5-2.783-8.025-11.07 5.262-2.189 28.037z"/><path fill-rule="evenodd" clip-rule="evenodd" fill="#3AA0BA" d="M760.851 200.957l36.781-1.354 4.529-28.508-17.152-6.753-12.134 8.908-6.687 6.125z"/><path fill-rule="evenodd" clip-rule="evenodd" fill="#29788C" d="M759.773 200.453l1.844 2.294 2.102-2.166-1.792-1.973z"/><path fill-rule="evenodd" clip-rule="evenodd" fill="#EAECEB" d="M758.78 165.475l8.22 10.463 18.009-11.596L762.125 198z"/><path fill-rule="evenodd" clip-rule="evenodd" fill="#F5CBB3" d="M786.672 223.17l8.762 6.601 2.568-5.338.022-2.484-5.292-5.142-2.385 1.692z"/><path fill-rule="evenodd" clip-rule="evenodd" fill="#3AA0BA" d="M791.097 216.821l3.681 1.975 4.613 1.724 1.827-.234 14.939-17.619-18.525-3.064z"/><path fill-rule="evenodd" clip-rule="evenodd" fill="#DDDDDC" d="M801.218 220.286l-8.566-7.535-2.305 5.748 7.655 5.934z"/><path fill-rule="evenodd" clip-rule="evenodd" fill="#FFF1E9" d="M757.237 122.104l7.018.46-2.548 11.405-4.718-.58z"/><path fill-rule="evenodd" clip-rule="evenodd" fill="#F5CBB3" d="M792.852 127.688l-4.295 12.152 6.358 2.553 5.827-10.729z"/><path fill-rule="evenodd" clip-rule="evenodd" fill="#C3927D" d="M794.626 131.441l2.895 1.671-4.716 3.292z"/><path fill-rule="evenodd" clip-rule="evenodd" fill="#29788C" d="M758.804 223.548l1.844 2.294 2.102-2.166-1.792-1.972z"/><path fill="#2A2A2A" d="M754.897 125.454c-.101 1.219-1.172 2.126-2.391 2.024-1.219-.101-2.126-1.172-2.024-2.392.101-1.219 1.172-2.126 2.392-2.024 1.218.102 2.125 1.173 2.023 2.392zM770.303 126.667c-.101 1.219-1.172 2.126-2.391 2.024-1.219-.101-2.126-1.172-2.024-2.392.101-1.219 1.172-2.126 2.392-2.024 1.218.102 2.124 1.173 2.023 2.392z"/><path fill-rule="evenodd" clip-rule="evenodd" fill="#494749" d="M754.365 116.676l2.871 3.658-8.512-.777zM768.81 117.188l-3.556 3.264 10.471 1.145z"/><path fill-rule="evenodd" clip-rule="evenodd" fill="#C3927D" d="M752.775 139.059l14.699 1.223-3.888 8.54-8.685-1.14z"/><path fill-rule="evenodd" clip-rule="evenodd" fill="#FFF" d="M754.499 140.457l10.83.984-1.103 2.208-8.903-1.033z"/><g><path fill="#F5CBB3" d="M830.362 181.397l-14.779 33.686 14.404 7.411z"/><path fill="#FEE5D6" d="M828.583 216.25l.441 5.436 5.323 1.648-5.437 13.71-13.327-21.627z"/><path fill="#494749" d="M826.803 153.729l-10.674 16.121 24.181 7.843 6.754-16.339z"/><path fill="#4F5353" d="M818.307 116.912l-2.178 52.938 6.971-2.106 2.215-42.662z"/><path opacity=".1" fill="#2B2C2B" d="M807.946 304.642l40.335-4.784 43.686 5.332-44.405 8.225z"/><path fill="#3AA0BA" d="M838.783 299.526l-5.812 7.003 14.555.308 3.466-8.956 3.695 2.741.924-1.462-2.069-6.763-5.261-4.569-5.85 11.881zM859.634 295.825l2.882 6.077-2.882 7.675h-2.277v-8.042z"/><path fill="#F5CBB3" d="M853.466 269.842l-4.055 9.042 4.131 13.513-5.98 10.853 1.265 4.134 8.53 2.193 5.993-33.521z"/><path fill="#5EC0D9" d="M857.357 309.577l-9.795-6.327-3.486 6.327z"/><path fill="#F5CBB3" d="M822.293 267.103l18.917 20.907-2.427 11.516 8.779 3.724 1.265-14.874-4.146-9.459-8.12-13.096z"/><path fill="#C3927D" d="M863.35 276.056l-13.938 2.83-1.77-6.932zM822.293 267.103l22.388 11.814-3.324-9.722z"/><path fill="#F5CBB3" d="M875.882 182.274l4.754 35.722-12.53 3.565-5.76-15.528z"/><path fill="#3AA0BA" d="M830.362 181.397l10.615-3.51 20.32.75 14.585 3.637-11.354 23.759-20.997 3.473-18.48-1.097z"/><path fill="#EAECEB" d="M835.25 179.167l5.727-1.28 20.32.75 14.585 3.637-15.715 8.226v-7.833L842.333 195z"/><path fill="#308FA6" d="M864.528 206.033l3.578 23.412-29.613 2.267-7.402-4.727-6.04-18.576z"/><path fill="#6F7273" d="M828.91 237.044l30.366-5.915 13.295 5.79-24.929 10.26-22.224 4.987z"/><path fill="#494749" d="M872.571 236.919l-9.221 39.137-41.057-8.953 3.125-14.937z"/><path fill="#4F5353" d="M872.571 236.919l-43.661.125 2.181-10.059 37.015 2.46z"/><path fill="#FEE5D6" d="M823.681 120.747l-.69 47.36 10.784.218 6.481 4.902 17.374-4.139 4.139-18.191.109-28.321-5.255-13.682-28.44 3.951z"/><path fill="#858686" d="M818.307 116.912l5.338 10.53 12.543-9.067-3.273-6.613 1.871-2.433-.062-1.746z"/><path fill="#F5CBB3" d="M861.551 123.012l16.593 27.304-16.847 28.321-16.121 5.81 12.454-15.359z"/><path fill="#858686" d="M836.408 102.779l3.993 1.122 1.935 5.241-6.148 9.233-17.881-1.463z"/><path fill="#6F7273" d="M851.313 125.25l10.104-7.5 6.685-13.662-31.694-1.309-.22 15.596z"/><path fill="#858686" d="M864.565 130.637l7.029-15.818-3.492-10.731-16.789 21.162z"/><path fill="#4F5353" d="M881.5 128.167l-7.667 9.5-9.268-7.03 3.537-26.549z"/><path fill="#494749" d="M886.059 170.94l-24.762 7.697 3.633-10.917-.365-37.192 18.01 23.222z"/><path fill="#6F7273" d="M881.5 128.167l4.559 42.773-21.494-40.303z"/><path fill="#C3927D" d="M861.061 169.796l-3.431-.708-23.855-.763 11.401 16.122z"/><path fill="#F5CBB3" d="M839.027 149.381l-2.966-1.378-4.712-8.949-5.469-4.926 7.118.177 3.877 1.041 1.281 2.224 1.337 1.695 1.28-1.695 2.85-1.536 5.525-1.406 7.741.506-7.215 4.396-7.853 8.526z"/><path fill="#4F5353" d="M825.88 134.182l4.37-1.682 6.625 2.846zM856.889 135.134l-4.639-2.009-8.627 2.909z"/><path fill="#FFF1E9" d="M838.156 137.57l-2.095 10.433 2.966 1.378 2.794-1.325-1.048-10.486z"/><path fill="#C3927D" d="M839.295 149.654l-3.234-1.651 5.76.053z"/><path fill="#2B2C2B" d="M848.618 137.918c1.206 0 2.184.978 2.184 2.184 0 1.206-.977 2.184-2.184 2.184-1.206 0-2.184-.978-2.184-2.184-.001-1.206.977-2.184 2.184-2.184zM832.085 137.539c1.206 0 2.184.978 2.184 2.184 0 1.206-.977 2.184-2.184 2.184-1.206 0-2.184-.978-2.184-2.184 0-1.206.978-2.184 2.184-2.184z"/><path fill="#FFF" d="M838.793 153.902l-7.335.587 7.868 6.665 8.091-5.987z"/><path fill="#4EA9AA" d="M830.939 153.949l7.842-.668 9.474 1.242-1.099.665-8.062.406-7.219-.906z"/><path fill="#72CBCC" d="M838.75 162.344l-7.811-8.395 7.832 5.364 9.484-4.79z"/><path fill="#ECECEB" d="M823.25 200.667l3.083 26.833 20.084.708-2-26.875z"/><path fill="#FEE5D6" d="M846.333 217.75L840 222.333l-9.083-5.416 1.833-7.167 9 .667z"/><path fill="#F5CBB3" d="M857.167 219.25l-3.834-4.333-11.583-4.5-1.75 11.916 10.467 1.375z"/><path fill="#FEE5D6" d="M880.636 217.996l-27.303-3.079-2.866 8.791 17.639 5.737z"/><path fill="#494749" d="M857.833 195.5l1.25-16 17.75-1.417-.951 4.191z"/><path fill="#858686" d="M879.25 158.25l-14.32 9.47-5.847 11.78 16.799 2.774 10.177-11.334z"/></g><path fill="#6F7273" d="M832 195.833l-15.871-25.983 24.163 7.713.312.437z"/><g><path fill="#A3A1A1" d="M681.167 28.833L694.5.167 719.167 15.5l14.333 255-100.333-23zM145 23L117 .5l-25 11-14.833 263.333L159 255z"/><path fill="#D0CECD" d="M446.591 87.595L390.5 23.5 117 .5l4.833 231 219.763 36.086 136.493-67.497z"/><path fill="#75CFE3" d="M446.591 87.595L390.5 23.5 117 .5l.5 44.5 273.75 12.75 86.839 142.339z"/><path fill="#B7B7B7" d="M395.593 260.086L392.5 199.5l-2-176L694.5.167l-2 216.666-211.411 46.253z"/><path fill="#5EC0D9" d="M390.875 57.813L390.5 23.5 694.5.167 693.5 47z"/><path fill="#B7B7B7" d="M284.5 263.5l83.333 86.667L899.667 326.5l-3.667-44z"/><path fill="#A3A1A1" d="M64.5 265.833l-51 13.667-13 47.667 367.333 23L369.5 321.5l-216.333-70z"/><path fill="#DDDDDC" d="M392.5 199.5l-312 28.667-67 51.333 35.333 4.168L369.5 321.5l527-39-204-65.667z"/><path fill="#B7B7B7" d="M102.266 268.167l-24.23 9.435L61.75 304.5l57.75-3.75 1.422-8.567 20.8-8.577z"/><path fill="#C9C9C9" d="M102.266 268.167l-3.751 27.903L46.5 306.75l2.333-23.082z"/><path fill="#ECECEB" d="M118.083 320.75l1.417-20-20.985-4.68-52.265 10.18z"/></g><g><g fill-rule="evenodd" clip-rule="evenodd"><path opacity=".1" fill="#2B2B2B" d="M283.5 270l-65.951-4.659-65.62 6.615L203.5 282zM403.661 276.303l-66.904-7.314-75.828 7.967L328.5 288.5z"/><path fill="#195F61" d="M241.753 210.87l-11.979 22.411-9.679 4.483-8.662-.287.113-26.574z"/><path fill="#404040" d="M229.774 233.281l-10.16 18.465-3.669 5.286h-8.67l-.447-10.818 4.605-8.737z"/><path fill="#50AAAA" d="M219.614 251.746l6.456 6.855.523 6.563-8.292 2.562h-10.814l-.212-10.694z"/><path fill="#51A9AB" d="M252.654 127.914l-1.668 16.14-2.275 8.551-.288 15.189 22.785-14.024z"/><path fill="#207779" d="M183.474 210.87l6.644 29.486 8.889.543 12.426-3.422 5.223-21.692-17.932-.239z"/><path fill="#505354" d="M211.433 237.477l-21.315 2.879 4.8 21.42 6.786-1.151 5.571-3.593z"/><path fill="#72CBCC" d="M207.275 257.032l-12.357 4.744-1.888 11.52 12.987-3.345 5.416-4.36z"/><path fill="#FEE5D6" d="M268.092 60.988l1.154 56.736-28.379 2.76-7.036 4.679-1.008 3.554 10.73 11.777-23.099 7.82-24.159-6.495 1.872-15.994 7.65-27.645-8.678-10.972 11.301-10.572 12.282 14.336 3.612-1.148-14.483-20.318 5.596-4.721z"/><path fill="#369496" d="M250.986 144.054l-6.347-5.482-7.451 1.226-7.699 8.984-5.915 9.394-1.946 10.639-.272 19.396 8.328 3.381 16.543-3.771 2.196-20.027z"/><path fill="#207779" d="M228.432 156.107l-3.273-8.181-19.155-6.215-11.348 1.498-7.15 5.67-3.149 24.387-.582 5.987 22.516 10.095 15.065-1.137z"/><path fill="#F6CBB4" d="M235.84 74.482l7.95 3.339 6.448 18.992.744-15.256-2.94-8.99zM255.025 72.617l9.835-.053-11.229 14.082z"/><path fill="#C3937D" d="M234.77 99.247l7.261 10.428 19.614-1.756 2.136-6.762-12.985 2.093z"/><path fill="#F6CBB4" d="M227.596 69.021l4.344 53.786 2.076 1.419-1.193 4.491-10.12 11.97-24.536-14.862 4.078-15.717-.446-7.841.534-5.768-4.802-11.274 12.623-6.405 10.122 13.729 4.058-2.725-5.875-10.638-3.183-12.137z"/><path fill="#C3937D" d="M224.277 121.981l8.546 6.736 8.044-8.233zM205.199 98.058l6.033-2.686-8.987 14.736-.446-7.841zM268.092 60.988l-40.315 10.18-10.218 1.389-1.09-5.317 51.204-13.101.326 2.259z"/><path fill="#C3937D" d="M224.277 121.981l4.813 3.45-19.404 4.653 1.578-17.174z"/><path fill="#505354" d="M213.47 69.306l4.989 9.88 8.701 11.395-6.884 1.968-10.041-11.235-10.6 5.319-3.132 3.793-6.862-5.548-3.912-8.196 14.532-12.57z"/><path fill="#484848" d="M264.86 72.564l-5.744-4.633-4.091 4.686zM248.042 72.567l-7.376-3.957-4.826 5.872z"/><path fill="#404040" d="M210.235 81.314l-4.57-7.464-19.936 2.832-3.43-7.182 15.432-4.63 15.937 1.415zM199.635 86.633l-9.994-1.755 12.604 25.23 2.954-12.05zM246.227 187.821l-14.99 18.543-16.596 17.648-38.102-13.791 7.236-30.968 37.581 8.958z"/><path fill="#505354" d="M221.356 188.211l-6.715 35.801 31.439-12.389.147-23.802z"/><path fill="#484848" d="M255.683 96.225l-5.445.588-6.591 3.857-8.877-1.423 7.512 7.481 18.609-1.48 5.781-8.181-6.978 2.449zM253.537 112.118l-7.055 12.091 14.862-1.055z"/><path fill="#C3937D" d="M208.714 85.42l-5.185 2.179 7.134 4.296z"/><path fill="#72CBCC" d="M237.188 139.798l-8.756 16.309-22.428-14.396 18.871-1.157z"/><path fill="#FFF1E9" d="M255.025 72.617l.658 23.608-5.445.588-2.196-24.246z"/><path fill="#369496" d="M217.089 69.107l7.188 52.874-12.615 3.165-1.689-56.257 3.695-2.604z"/><path fill="#51A9AB" d="M167.725 69.496l59.871-.475.737-21.276-29.096 1.345z"/><path fill="#72CBCC" d="M225.674 53.488l6.011-8.498 22.191-1.907 36.372 6.364-62.652 19.574z"/><path fill="#51A9AB" d="M253.876 43.083l-31.521-14.895-4.604 17.463 7.923 7.837z"/><path fill="#369496" d="M222.355 28.188L199.237 49.09l26.437 4.398z"/><path fill="#207779" d="M220.87 116.478l-3.593-2.876-3.355 4.332 4.266 2.842z"/><path fill="#2B2C2B" d="M255.683 96.225l-2.345 4.114-3.1-3.526zM263.602 78.892c-.245 1.236-1.444 2.039-2.68 1.795-1.236-.245-2.039-1.444-1.795-2.68.244-1.236 1.444-2.039 2.68-1.795 1.236.245 2.039 1.445 1.795 2.68zM244.512 80.277c-.244 1.236-1.444 2.039-2.68 1.795-1.236-.244-2.039-1.445-1.795-2.68.244-1.236 1.444-2.039 2.68-1.795s2.039 1.444 1.795 2.68z"/><path fill="#72CBCC" d="M198.167 125.825l-16.096 1.453 5.435 21.601 18.498-7.168zM232.823 128.717l4.365 11.081 13.798 4.256 1.668-16.14z"/><path fill="#227779" d="M217.763 273.296l-2.804-12.524-21.929 12.524z"/><path fill="#72CBCC" d="M243.328 255.961l-17.258 2.64-7.769 9.125 13.866-2.562z"/><path fill="#227779" d="M218.301 267.726l25.027-11.765-8.663 11.765z"/></g><path fill="#F5CBB3" d="M265.598 199.118l4.091-7.363 6.973 5.025-1.402 4.052-6.389-.468 2.493 5.922 1.13 10.48-13.306-.891-5.16-10.563z"/><path fill="#FEE5D6" d="M266.377 177.924l-9.077 10.792-3.272 16.596 17.336.974-1.675-14.531z"/><path fill="#F5CAB4" d="M269.572 156.341l-7.831 7.597-4.441 24.778 12.389 3.039 10.402-19.752z"/><path fill="#369496" d="M309.433 268.989l11.595 5.92v5.01l-27.925.076.027-5.086z"/><path fill="#51A9AB" d="M304.879 249.028l10.888 11.081 5.261 14.8H293.13l1.037-13.737z"/><path fill="#308FA6" d="M340.173 130.58l8.301-9.298 23.349 30.215-28.475 13.833z"/><path fill="#369496" d="M361.007 265.232l13.244 3.416v5.009h-37.494v-4.668z"/><path fill="#308FA6" d="M298.959 143.765l-16.926-11.706-20.292 31.879 18.35 8.065 8.641-6.673z"/><path fill="#51A9AB" d="M347.743 249.028l11.804 7.715 14.704 11.905-37.494.341.676-12.246z"/><path fill="#494749" d="M325.447 207.613l5.967 30.432 6.019 18.698h22.114l-2.322-27.149z"/><path fill="#4F5353" d="M325.447 207.613v11.897l5.967 18.535 25.811-8.451-2.746-32.102z"/><path fill="#494749" d="M305.738 183.953l-13.717 48.786 2.146 28.433 21.6-1.063 5.261-22.064z"/><path fill="#4F5353" d="M305.738 183.953L288.78 191.1l3.241 41.639 29.007 5.306 4.419-18.535z"/><path fill="#494749" d="M335.125 183.953l18.955 8.301.399 5.238-29.032 22.018-36.667-28.41z"/><path fill="#75CFE3" d="M307.535 124.602l-12.328 3.611-13.174 3.846 6.699 33.271 34.944 25.833 27.459-29.616-2.661-40.265-17.27 3.347z"/><path fill="#5EC0D9" d="M323.724 139.161l-1.285-7.753 1.597.059 1.753-.76.935 8.142zM288.732 165.33l.048 25.77 13.722 10.631 51.578-9.477-1.954-15.715-.991-14.992z"/><path fill="#308FA6" d="M301.387 113.504l-3.018 4.838-16.642 14.157 42.309-1.032 24.438-10.185-20.896-8.932z"/><path fill="#F5CAB4" d="M287.678 97.483l1.433 4.782 8.204 16.926 26.721 12.276 2.829-6.451-18.436-84.335-17.663 16.065-2.27 30.559z"/><path fill="#C3927D" d="M326.865 125.016l9.739-21.455-33.903 11.862zM287.837 89.648l-3.192 3.442 4.466 9.175 6.536-12.208z"/><path fill="#6F7273" d="M332.334 54.426L294.5 31.435l-12.89 16.68 18.309 2.724z"/><path fill="#4F5353" d="M282.369 68.106l-11.154-6.43 10.395-13.561 18.309 2.724-12.082 19.213z"/><path fill="#494749" d="M294.5 64.569l2.246-8.686-25.531 5.793 7.322 17.611 12.229 5.404 8.639-1.595z"/><path fill="#FEE5D6" d="M290.891 76.122l-12.354 3.165 6.108 13.803 11.002-3.033z"/><path fill="#6F7273" d="M315.471 42.931l1.728-11.496h9.666l21.3 12.595-20.406 15.962z"/><path fill="#4F5353" d="M312.147 54.427c0-.366 6.513-6.079 6.513-6.079L294.5 31.435h22.699l12.797 11.888-17.849 11.104z"/><path fill="#FEE5D6" d="M311.129 112.474l44.906-8.976-7.87-59.468-18.169-.707-30.077 7.516z"/><path fill="#C3927D" d="M284.358 81.29l3.808-1.171 1.66 5.955z"/><path fill="#FEF5F3" d="M327.759 86.3l7.82-.899"/><path fill="#F5CAB4" d="M336.596 63.029l10.024.124-5.748 8.927-3.74 11.417-8.809 1.111-7.174-10.355-7.877-6.776 8.551-2.304 4.033.239.355 2.75 3.522 4.069 4.993-5.143.168-2.922z"/><path fill="#C3927D" d="M332.692 80.484l4.44 3.013-4.518 3.328-4.291-2.217z"/><path fill="#FFF1E9" d="M334.726 67.088l2.406 16.409-8.809 1.111-2.112-16.446z"/><path fill="#4F5353" d="M339.958 59.919l6.662 3.234-11.726 1.013zM325.856 65.412l-6.721-3.711-5.863 5.776z"/><path fill="#2B2B2B" d="M318.799 74.125c.188 1.491 1.549 2.547 3.039 2.359 1.491-.188 2.547-1.549 2.359-3.039-.188-1.491-1.549-2.547-3.04-2.359-1.49.187-2.546 1.548-2.358 3.039zM338.96 72.08c.188 1.491 1.549 2.547 3.04 2.359 1.491-.188 2.547-1.549 2.359-3.039-.188-1.491-1.549-2.547-3.04-2.359-1.491.187-2.547 1.548-2.359 3.039z"/><path fill="#C3927D" d="M341.278 89.124l-18.076 2.402 4.318 9.281 12.698-2.191z"/><path fill="#FFF" d="M326.206 92.82l13.003-1.987-.369 6.058-10.597 1.714z"/><path fill="#308FA6" d="M334.563 64.185l18.612-1.724 2.133 15.106-18.7 2.455-.467-3.117 15.739-2.182-1.247-9.428-15.907 1.793zM303.006 68.334l22.85-2.922.355 2.75-19.64 2.451 1.87 10.285 18.992-2.805.351 2.805-21.973 3.331z"/><path fill="#F5CAB4" d="M326.841 154.588l-3.039-4.558-19.518 2.337.234 3.507 7.947.233 2.221 7.831 9.467 1.636z"/><path fill="#FEE5D6" d="M344.84 159.497l-6.428-5.143-14.61-4.324.351 15.544 13.09 2.104z"/><path fill="#F5CAB4" d="M338.412 154.354l33.411-2.857-3.063 19.882-31.517-3.701z"/><g fill-rule="evenodd" clip-rule="evenodd"><path fill="#FEE5D6" d="M209.264 150.731l-7.947 24.31 14.492 4.675 8.182-13.791-3.74-6.155z"/><path fill="#51A9AB" d="M209.264 150.731l-8.493 28.284-23.998-12.155 5.298-39.582z"/><path fill="#F6CBB4" d="M246.431 154.939l-26.18 4.831-4.442 19.946 36.127-12.155 2.442-9.934zM260.273 150.381l.936-7.247 13.441 2.922.766 12.74-10.464 4.324z"/><path fill="#FEE5D6" d="M261.209 143.134l-14.778 11.805 5.505 12.622 13.016-4.441z"/></g></g><g><path opacity=".1" fill="#2B2B2B" d="M398 267.616l69-10 71.5 13-67.5 11.5z"/><path fill="#FEE5D6" d="M540.75 151.463l5.398-4.821 9.948-2.15 1.334 8.481-8.805 6.985z"/><path fill="#F5CBB3" d="M539.622 147.924l6.633-1.373 2.427 13.207-11.51 3.299-4.806-4.611z"/><path fill="#FEE5D6" d="M528.29 160.479l2.456-7.086 4.021-8.618 8.459-4.034 1.31 2.339-4.914 4.844-.279 6.263-11.443 8.016z"/><path fill="#A3A1A1" d="M428.803 58.011l-9.095-.21 8.129 31.159 9.059-22.73z"/><path fill="#3CA0BA" d="M424.019 165.733l-16.976-13.534 29.207-26.056 9.339-.031-7.367 30.977z"/><path fill="#369496" d="M450.956 260.49l-17.078 4.841v5.037l31.014.196 10.657-7.98z"/><path fill="#51A9AB" d="M451.639 246.099l-4.713 7.719-13.048 11.513 38.119 1.308v-12.167z"/><path fill="#369496" d="M473.226 265.985l-8.334 4.579v4.187h25.822v-4.187z"/><path fill="#72CBCC" d="M470.904 256.173l-4.372 4.317-1.64 10.074h25.822l-5.191-9.158z"/><path fill="#4F5353" d="M456.148 224.773l-13.116 5.888 3.894 23.157 19.606 6.672 10.383-22.764-19.811-12.953z"/><path fill="#6F7273" d="M482.653 223.203l-16.121 16.223v21.064l18.991.916 5.168-22.676zM453.825 198.868l-17.058-1.213 6.265 33.006 23.5 8.765 11.066-11.513z"/><path fill="#858686" d="M473.073 208.324l-6.541 14.879v16.223l24.159-.696 9.019-36.623z"/><path fill="#4F5353" d="M449.21 177.327l5.54 35.778 11.782 10.098 10.593-8.303 22.085-13.85z"/><path fill="#ECECEB" d="M501.027 157.919l-3.372 15.108 1.912 20.736-24.596 3.949-28.382-.075-.416-73.636 39.513.138 5.942 9.849 3.522-7.466z"/><path fill="#D0CFCE" d="M501.027 157.919l-3.372 15.108 1.912 20.736-24.596 3.949-10.93 1.271-1.145-58.9 22.79-15.944 5.942 9.849 3.522-7.466z"/><path opacity=".1" fill="#2B2C2B" d="M501.027 157.919l-3.372 15.108-9.178-8.543-25.581-24.401-22.701 14.504 5.978-30.586 39.513.138 5.942 9.849 3.522-7.466z"/><path fill="#ECECEB" d="M501.027 157.919l-3.372 15.108-9.266-20.907-25.493-12.037-23.141 7.439 6.418-23.521 4.166-1.707 35.347 1.845 5.942 9.849 3.522-7.466z"/><path fill="#51A9AB" d="M490.065 197.786l-14.894 6.765-28.38.406 2.118-7.308 38.048.078z"/><path fill="#3CA0BA" d="M498.453 170.157l22.094-5.096-20.596-36.934-5.37-1.557s-3.499 44.244-3.226 43.893c.274-.351 7.098-.306 7.098-.306z"/><path fill="#338EA5" d="M495.15 126.522l4.153 30.879.407 44.706-22.585 12.793-7.307-50.631 7.898-12.33 7.97-27.8zM446.466 123.894l4.831 25.208 7.527 15.609-4.074 48.394-17.983-15.45-.517-71.512z"/><path fill="#3CA0BA" d="M446.466 123.894l12.358 40.817-19.929-10.608zM485.686 124.139l7.412 33.923-23.28 6.207z"/><path fill="#C2927D" d="M434.101 111.552l16.238 10.742 12.557 17.789 21.348-15.223s-6.407-11.089-6.876-11.114c-.469-.026-43.267-2.194-43.267-2.194z"/><path fill="#4F5353" d="M456.132 47.742l-.044-1.612-21.418-8.496-14.962 20.167 6.584 5.704 27.986 5.341z"/><path fill="#757576" d="M471.194 64.265l11.168-23.962-47.692-2.669 3.249 19.089 31.923 13.316z"/><path fill="#4F5353" d="M473.699 84.71l25.631-21.452-16.968-22.955-20.832 18.206z"/><path fill="#A3A1A1" d="M481.587 73.64l9.934 9.127 5.066-7.529 2.743-11.98-23.663 8.232-12.112 4.21z"/><path fill="#4F5353" d="M475.667 71.49l20.92 3.748-1.162 4.615-13.49 16.152-8.915-12.334z"/><path fill="#C2927D" d="M491.035 89.447l1.75 3.744-1.543 6.405-11.847-7.711z"/><path fill="#F5CBB4" d="M481.004 89.967l3.497-6.891-.086-2.929 11.01-.294-2.64 13.338-8.203-.641z"/><path fill="#F5CBB4" d="M464.215 103.009l2.23 14.862 11.671 1.876-9.898 16.906 17.468-12.514 5.556-24.543-5.343-7.732-1.398-8.788-8.33.056-.774-11.725-8.245-7.334z"/><path fill="#FCE4D5" d="M437.919 56.723l-11.627 6.782 2.106 52.227 38.047 2.139 1.026-53.454-5.941-5.908z"/><path fill="#F5CBB4" d="M449.881 76.91l9.003.759-11.859 14.561-2.623-2.323-3.046 2.2-10.075-17.348 8.705 1.399.287 2.757 4.278.609 3.047.208z"/><path fill="#C2927D" d="M443.978 88.803l-4.093 3.023 4.031 2.925 3.109-2.521z"/><path fill="#FFF1E9" d="M440.273 78.915l-.388 12.911 7.14.404.573-12.498z"/><path fill="#2A2B2A" d="M436.999 81.017c.086 1.492-1.054 2.771-2.546 2.856-1.492.086-2.771-1.054-2.856-2.546-.086-1.492 1.054-2.77 2.546-2.856 1.491-.085 2.77 1.054 2.856 2.546zM454.415 82.179c.086 1.492-1.054 2.771-2.546 2.856-1.492.086-2.77-1.054-2.856-2.546-.086-1.492 1.054-2.77 2.546-2.856 1.491-.085 2.77 1.054 2.856 2.546z"/><path fill="#757576" d="M453.442 72.615L449.7 76.98l9.184.689zM436.474 71.71l3.512 4.448-8.705-1.399z"/><path fill="#C2927D" d="M436.006 98.118l17.357.651-2.537 8.891-12.291-.678zM491.619 83.289l-3.705.319.44 6.98z"/><path fill="#FFF" d="M438.118 99.938l12.411.49-.626 3.448-11.052-.736z"/><path fill="#2A788D" d="M400.966 131.95l-11.249 6.736 12.21 26.18 22.092.867z"/><path fill="#8F8F8F" d="M393.431 130.07l-7.776 1.636.922 8.199 10.223.696 2.14-9.25z"/><path fill="#A3A1A1" d="M414.666 112.938l8.821-.741 1.729 8.541-2.438 6.187-12.564-6.916z"/><path fill="#DDDDDC" d="M414.666 112.938l3.275 2.294 4.905 11.844-1.034 2.633-11.598-9.7z"/><path fill="#C4C4C2" d="M409.537 122.159l-4.133-6.944 8.277-4.288 9.806 1.27-8.189 4.455z"/><path fill="#ECECEB" d="M409.537 122.159l-7.197-5.396 3.064-1.548 12.566-.009-2.672 1.446z"/><path fill="#8F8F8F" d="M402.34 116.763l12.958-.111 6.514 13.057-13.409-2.432z"/><path fill="#A3A1A1" d="M408.58 121.263l4.875-1.666 2.774 5.628-19.429 15.376-1.31-7.146z"/><path fill="#C4C4C2" d="M406.74 119.464l-21.085 12.242 9.835 1.749 17.965-13.858z"/><path fill="#F5CBB4" d="M396.45 124.444l5.89-7.681 9.638 8.191-8.813 10.368-6.253-4.638z"/><path fill="#FCE4D5" d="M402.34 116.763l-16.685 14.943 11.257-1.022z"/><path fill="#2A788D" d="M530.784 153.281l-31.411 16.622 10.981 16.268 26.559-23.126z"/></g><g><path fill="#494749" d="M616 115.833l-3.562 23.522 26.229 1.978-5.167-29z"/><path fill-rule="evenodd" clip-rule="evenodd" fill="#1F7678" d="M627.086 146.29l-14.648-6.935-15.623 31.479 27.232 9.584 3.039-33.544z"/><path fill-rule="evenodd" clip-rule="evenodd" fill="#4F5353" d="M676.307 99.512l3.217 9.172-24.563 39.634-15.018-13.73 12.711-27.513z"/><path fill-rule="evenodd" clip-rule="evenodd" fill="#494749" d="M672.284 78.435l7.401 8.849-.161 21.4-29.605 15.929 8.849-44.569z"/><path fill-rule="evenodd" clip-rule="evenodd" fill="#F5CBB3" d="M659.655 251.166l-1.699 16.881-3.682 7.793-5.967-7.482-5.014-17.815 8.689-14.853z"/><path fill-rule="evenodd" clip-rule="evenodd" fill="#FEE5D6" d="M663.009 216.841l-3.354 34.325-16.362-1.091-5.883-20.093z"/><path fill-rule="evenodd" clip-rule="evenodd" fill="#2B2B2B" d="M580.459 283.819l50.498-5.755 48.312 5.94-45.102 7.496z" opacity=".1"/><path fill-rule="evenodd" clip-rule="evenodd" fill="#CEA19C" d="M616.845 221.91l12.486 6.307 1.295-.637 1.072-8.151z"/><path fill-rule="evenodd" clip-rule="evenodd" fill="#4F5353" d="M658.559 66.747l-11.038 1.714 10.336 17.107 13.272.084 8.556 1.632-.416-21.611-6.169-1.406z"/><path fill-rule="evenodd" clip-rule="evenodd" fill="#737475" d="M632.456 54.101l-.405 3.439 15.47 10.921 31.748-2.788-20.983-28.589-16.551 1.94z"/><path fill-rule="evenodd" clip-rule="evenodd" fill="#8F8F8F" d="M638.588 38.126l19.698-1.042-20.434 19.629-6.157-7.62 2.452-7.969z"/><path fill-rule="evenodd" clip-rule="evenodd" fill="#4F5353" d="M624.513 31.995l14.075 6.131-.736 18.587-12.632-8.024-3.438-8.981z"/><path fill-rule="evenodd" clip-rule="evenodd" fill="#737475" d="M591.191 55.426l33.322-23.431 13.339 24.718-12.55 4.827-17.078 4.954-3.643-1.72-3.136-1.315-5.427 2.265z"/><path fill-rule="evenodd" clip-rule="evenodd" fill="#8F8F8F" d="M589.421 90.502l1.77-35.076 13.392 9.348 1.263 3.542-5.565 6.575z"/><path fill-rule="evenodd" clip-rule="evenodd" fill="#4F5353" d="M589.421 90.502l10.449-16.106 1.892 3.221-.773 9.011 14.283 3.016-7.616 11.37-3.432-8.045z"/><path fill-rule="evenodd" clip-rule="evenodd" fill="#6DCACB" d="M612.438 139.355l14.209-7.276 7.218-1.996-3.244 5.439 5.095 1.905 11.036-5.276-2.303-3.757 6.275 4.827 20.648 12.094-11.263 22.955-36.899.911-16.942-6.04z"/><path fill-rule="evenodd" clip-rule="evenodd" fill="#72CBCC" d="M648.307 268.358l-6.181 13.93 15.905 3.433 2.084-3.433-2.159-14.241-5.944 2.388z"/><path fill-rule="evenodd" clip-rule="evenodd" fill="#1E9193" d="M612.757 185.229l-6.004 17.019 30.657 6.319 28.225-6.319-8.174-18.09-8.875-1.601-30.142-.073z"/><path fill-rule="evenodd" clip-rule="evenodd" fill="#43A7A8" d="M606.268 163.141l6.489 22.088 44.704-1.071 2.648-15.888z"/><path fill-rule="evenodd" clip-rule="evenodd" fill="#F5CBB3" d="M647.682 68.421l-.845 6.094-6.32 36.776-11.688 11.711 1.953 12.48 6.372 1.426 4.077 1.434 9.654-5.162 9.895-26.186-1.62-7.95.091-14.763z"/><path fill-rule="evenodd" clip-rule="evenodd" fill="#C3927D" d="M621.072 122.544l3.162-3.609 19.893 3.908 4.183.161-7.079 15.338-10.639 5.221z"/><path fill-rule="evenodd" clip-rule="evenodd" fill="#494749" d="M647.521 68.461l10.659 24.4 4.603-6.044 5.362.505-7.993-3.339z"/><path fill-rule="evenodd" clip-rule="evenodd" fill="#C3927D" d="M662.428 97.793l-3.823-.083-1.79 1.297 3.965 7.987 3.217-7.734z"/><path fill-rule="evenodd" clip-rule="evenodd" fill="#F5CBB3" d="M660.152 83.983l10.977 1.67-7.133 13.607-7.181-.252z"/><path fill-rule="evenodd" clip-rule="evenodd" fill="#C3927D" d="M662.58 88.043l-1.643 6.664 5.563-6.12z"/><path fill-rule="evenodd" clip-rule="evenodd" fill="#FEE5D6" d="M599.87 74.396l.814 48.125 43.443.322 3.394-54.382-9.669-11.748-19.791 6.597-15.224 7.889z"/><path fill-rule="evenodd" clip-rule="evenodd" fill="#C3927D" d="M604.583 64.774l-4.713 9.622 37.982-17.683z"/><path fill-rule="evenodd" clip-rule="evenodd" fill="#F5CBB3" d="M622.89 95.511l1.118 1.73 7.083-11.275 9.786-8.632-7.813 1.024-7.733 1.274-1.125 1.121-2.678 3.354zM618.406 84.107l-1.702 11.897-.734-1.582-3.972-8.358-7.264-8.146 6.808-.117 2.868 1.634 1.385 1.101z"/><path fill-rule="evenodd" clip-rule="evenodd" fill="#6F7273" d="M640.877 77.334l-9.876-1.403-6.795 4.822zM615.795 80.536l-5.188-3.845-5.873 1.227z"/><path fill-rule="evenodd" clip-rule="evenodd" fill="#C3927D" d="M620.658 100.475l3.35-3.234-7.869.117z"/><path fill-rule="evenodd" clip-rule="evenodd" fill="#FFF1E9" d="M624.008 97.241l-7.752.078 2.15-13.212h3.122z"/><path fill-rule="evenodd" clip-rule="evenodd" fill="#2B2B2B" d="M633.765 85.966c0 1.476-1.197 2.673-2.673 2.673-1.475 0-2.672-1.197-2.672-2.673s1.197-2.673 2.672-2.673c1.476.001 2.673 1.198 2.673 2.673zM614.357 85.966c0 1.476-1.197 2.673-2.673 2.673-1.475 0-2.672-1.197-2.672-2.673s1.197-2.673 2.672-2.673c1.475.001 2.673 1.198 2.673 2.673z"/><path fill-rule="evenodd" clip-rule="evenodd" fill="#F5CBB3" d="M609.477 246.335l1.726 19.725 8.112 8.382 1.449-7.049 4.452-18.097-3.996-12.281z"/><path fill-rule="evenodd" clip-rule="evenodd" fill="#FEE5D6" d="M607.937 229.982l1.54 16.353 15.739 2.961 4.865-19.314z"/><path fill-rule="evenodd" clip-rule="evenodd" fill="#349496" d="M642.128 282.288h17.988v3.433h-17.988zM597.342 278.856h23.277v3.432h-23.277z"/><path fill-rule="evenodd" clip-rule="evenodd" fill="#72CBCC" d="M620.764 267.393l-.145 11.463h-23.277l4.075-3.763z"/><path fill-rule="evenodd" clip-rule="evenodd" fill="#FEE5D6" d="M646.249 278.294h10.359l1.348-10.247-9.649.311z"/><path fill="#FEE5D6" d="M601.417 275.093l11.041.237 8.306-7.937-9.561-1.333z"/><path fill-rule="evenodd" clip-rule="evenodd" fill="#C3927D" d="M607.937 229.982l20.469 6.725 1.675-6.725zM661.86 229.982l-22.58 6.792-1.87-6.792z"/><path fill-rule="evenodd" clip-rule="evenodd" fill="#6F7273" d="M606.753 202.248l1.184 27.734h53.923l3.775-27.734z"/><path fill-rule="evenodd" clip-rule="evenodd" fill="#2B2B2B" d="M665.635 202.248h-58.882l55.107 27.734z" opacity=".15"/><path fill="none" d="M623.122 165.495l13.386 22.201"/><path fill-rule="evenodd" clip-rule="evenodd" fill="#FFF" d="M613.872 106.241l5.851.662 8.695-.74.144 1.149-8.55 5.649-7.788-6.525z"/><path fill-rule="evenodd" clip-rule="evenodd" fill="#72CBCC" d="M620.651 114.344l10.841-8.751-3.424 1.271-7.727 4.441-7.067-4.597-3.193-1.246z"/><path fill-rule="evenodd" clip-rule="evenodd" fill="#349496" d="M631.492 105.593l-8.772-.278-3.404 1.071-2.526-.793-6.709-.131 3.193 1.246 6.358 1.006 8.436-.85z"/><path fill-rule="evenodd" clip-rule="evenodd" fill="#A3A1A1" d="M558.13 174.808l-11.454-5.26 39.971-2.688 28.05 7.714-31.322 4.909z"/><path fill-rule="evenodd" clip-rule="evenodd" fill="#6F7273" d="M581.972 178.781l-7.947 3.507-28.167-5.494.818-7.246 27.232 6.078z"/><path fill-rule="evenodd" clip-rule="evenodd" fill="#858686" d="M574.025 182.288l40.738-.878-.066-6.836-40.789 1.052z"/><g fill-rule="evenodd" clip-rule="evenodd"><path fill="#FEE5D6" d="M626.347 183.099l-4.248-6.227-10.246-3.272-1.909 2.298 3.701 5.338-16.012.467 24.719 5.016z"/><path fill="#1F7678" d="M645.591 172.801l1.205 5.687 4.889 4.927 5.816.83 13.53-14.892.341-24.038-16.948 10.404z"/><path fill="#72CBCC" d="M622.099 176.872l23.492-4.071 11.91 11.444-35.149 2.474z"/></g><path fill-rule="evenodd" clip-rule="evenodd" fill="#5EC0D9" d="M586.998 168.029l-.701-9.584-11.24-2.727-5.824 2.61 7.83 9.467z"/><path fill-rule="evenodd" clip-rule="evenodd" fill="#3AA0BA" d="M575.31 163.587l3.974 9.234 14.025-1.753-7.012-12.623-5.844 2.805zM573.908 149.368l2.104 9.759 5.98-1.5 8.59-12.934-12.311-7.325z"/><path fill-rule="evenodd" clip-rule="evenodd" fill="#5EC0D9" d="M577.024 135.187l-.467-10.909 6.545 1.247 7.48 19.168-4.831-.624z"/><path fill-rule="evenodd" clip-rule="evenodd" fill="#308FA6" d="M576.557 124.278l-8.415 18.233 7.87 16.655 9.739-15.097zM567.48 170.133l1.753-11.805 11.22 2.922-1.169 11.571z"/></g></svg>