<svg xmlns="http://www.w3.org/2000/svg" viewBox="0 0 900 350"><g fill-rule="evenodd" clip-rule="evenodd" fill="#2B2B2B"><path opacity=".1" d="M31.833 264.167L0 270.5l100.5 64.333 92-15.333 94 30.667 284-48.667-236-55.333zM617.833 300.833l-46 12.334 104 37.333 65-24.667 91-13.666-66.333-18.334z"/></g><path fill-rule="evenodd" clip-rule="evenodd" fill="#ECECEB" d="M899.5 88.5l-162-57-165.667 26-193.333-32-118 39-4 116 68 41 204-2 46-9 163.688 13 112.312-42z"/><g fill-rule="evenodd" clip-rule="evenodd"><path fill="#D0CECD" d="M393.5 126.5L376 162l-94.5-12-3.5-64 19.5-34L377 25.5zM785.167 114.167L736.5 157.5l-128.667-7.333-32.666 1.333-3.334-94 165.334-26.667z"/><path fill="#DDDDDC" d="M861.833 135.833L736.5 157.5l.667-126.667L862.5 75.5z"/><path fill="#ECECEB" d="M759.5 57l-1.5 59.5 62-4 .5-50z"/><path fill="#C4C4C2" d="M766 64.5l-.833 45 49.333-2.167.167-38.666z"/><path fill="#ECECEB" d="M762.917 88.208L817 89l-.25 5.25-55.125.25z"/><path fill="#DDDDDC" d="M544 142l-1-89.5-166-27-1 136.5z"/><path fill="#A3A1A1" d="M807.938 68l-5.563 7-.437 4.813-3.188 5.25 5.313 3.687 10.625.188-.021-20.271zM799.167 94.25L792 100.625l-2.417 5.333-2.166 2.584 27.083-1.209.167-13.125z"/><path fill="#ECECEB" d="M524.5 64.625l-.75 53.875L490 122l-.375-61.5z"/><path fill="#C4C4C2" d="M494.75 67l-.125 49.25 24.25-2.375.875-44.75z"/><path fill="#A3A1A1" d="M519.583 78.667L512 87l-.833 3.167L507.833 94l.25 5.75-4.083 8.917-9.375 7.583 24.25-2.375z"/><path fill="#ECECEB" d="M505.125 65.375l.125 52.125 4.5-.625.625-50.625z"/><path fill="#ECECEB" d="M492.375 91.125l29.25-.5.125 4.25-29.375.375z"/></g><g fill-rule="evenodd" clip-rule="evenodd"><path opacity=".1" fill="#2B2B2B" d="M785.667 179.833l29.666-11.166 21 2.5-15.5 10.5zM626.063 203.25l31.604-9.583 21 2.5L659 208.75z"/><path fill="#C4C4C2" d="M817 166.625l10.75-5-.25 11-6.375 6-6.375-6.375z"/><path fill="#A3A1A1" d="M803.25 168.5l-9.5 1.25 4.083 7.583 23.292 1.292L819.75 172z"/><path fill="#DDDDDC" d="M827.75 161.625l-34 8.125 26 2.25z"/><path fill="#C4C4C2" d="M659.581 192.446l11.618-2.365-2.8 10.64-7.595 4.355-4.719-7.682z"/><path fill="#A3A1A1" d="M645.772 191.074l-9.531-.992 2.423 11.374 22.14 3.62.203-6.763z"/><path fill="#DDDDDC" d="M671.199 190.081L657 186l-20.759 4.082 24.766 8.231z"/></g><path fill-rule="evenodd" clip-rule="evenodd" fill="#349496" d="M435.75 149.25L449 133.5l5.25-6.25 21.833 16.083L471 150.5l-20.75 4.5z"/><path fill-rule="evenodd" clip-rule="evenodd" fill="#8F8F8F" d="M523.5 210.167l-49.25 4-.75 27.25 37.75 11 2-31.25z"/><g fill-rule="evenodd" clip-rule="evenodd"><path fill="#A3A1A1" d="M488 175.5l23.833 47 33.667-6.667.25-38.833z"/><path fill="#8F8F8F" d="M523.5 180l-49.25 4-.75 20.75 37.75 11 2-24.75z"/><path fill="#C4C4C2" d="M495 179.5l-20.75 4.5 39 7 37.75-8-18.25-13z"/></g><g fill-rule="evenodd" clip-rule="evenodd"><path fill="#A3A1A1" d="M519.25 150.167l27.5.25-.375 5.25L544.5 181.5l-30.833 6.333L499 150.667z"/><path fill="#8F8F8F" d="M512.75 148.167l2.5 7-1.583 32.666-39.5-6.833-.917-28.333 17.25-6.5z"/><path fill="#C4C4C2" d="M483.5 144.917l-2 8.25 33.75 2 31.5-4.75-43.5-7.5z"/></g><path fill-rule="evenodd" clip-rule="evenodd" fill="#737475" d="M452 176.5l6.833 4L464 204.167l-29.667-.667-.5-20.167z"/><path fill-rule="evenodd" clip-rule="evenodd" fill="#72CBCC" d="M417.833 148.5l-9.666 11.5-1 20.167 45.666 2 6-1.667-1.666-32.667-5-18.666z"/><path fill-rule="evenodd" clip-rule="evenodd" fill="#72CBCC" d="M424.188 126.75l-5.021-.12-9.667 7.995L434.563 154l7.5-15.25z"/><path fill="#494749" d="M671.572 80.141L661.5 78.25l12.172 29.713z"/><path fill="#C3927D" d="M686.883 130.576l3.792 7.936 9.929 8.6 16.726-14.786-6.259-6.503-2.101-.912-10.146 3.171h-5.907z"/><path fill="#F5CBB3" d="M717.389 137.739l-11.258 10.204-5.512-1.414 14.611-15.165-4.2-1.05-12.206-2.232 11.296.142.039-42.134 5.748 2.101 4.598 19.105 2.861 10.361z"/><path fill="#C3927D" d="M723.366 117.657l-3.199-6.907.1-2.543 4.682 2.889z"/><path fill="#484749" d="M712.498 87.953l6.786 18.26 1.458-3.911h3.528l3.121-1.688 2.547-11.511-4.717-2.973h-9.671z"/><path fill="#F5CBB3" d="M720.114 100.592l-1.997 9.82 6.832.684 2.442-10.482z"/><path fill="#C3927D" d="M722.025 102.593l-.594 4.519 3.647-4.519z"/><path fill="#4F5353" d="M678.875 62.875L661.5 78.25l8.111 9.267 2.814-.237 6.263-8.839 5.812-8.066z"/><path fill="#6F7273" d="M696.881 77.687l-17.836 2.973-3.092-2.735 2.922-15.05 29.25-1.625-4.347 5.339z"/><path fill="#484749" d="M696.009 78.639v-3.885l12.116-13.504 19.138 9.838-9.335 5.727-13.674 7.016-4.479-2.933z"/><path fill="#4F5253" d="M702.827 83.633l4.01-3.614 20.426-8.931 2.675 18.015-17.44-1.15-3.647.357z"/><path fill="#FEE5D6" d="M672.272 131.101l38.758-.787 1.468-42.361-16.489-13.199-20.056 3.171-6.342 9.592z"/><path fill="#F5CBB3" d="M688.308 97.885l-3.218-1.386-.175-3.106-6.832-.476-2.541 1.666 9.258 14.396zM692.307 96.324l-.09 12.763 10.575-15.67-3.709-1.75-6.557 1.289z"/><path fill="#C3927D" d="M688.125 112.216l-3.325-3.237 3.651-.923 3.766 1.031z"/><path fill="#FFF1E9" d="M685.09 96.499l7.217-.175-.09 12.763-7.417-.108z"/><path fill="#2A2A2A" d="M682.799 100.62c0 1.189-.991 2.18-2.18 2.18s-2.18-.991-2.18-2.18.991-2.18 2.18-2.18 2.18.991 2.18 2.18zM700.041 99.906c0 1.229-.991 2.18-2.18 2.18-1.19 0-2.18-.951-2.18-2.18 0-1.189.991-2.18 2.18-2.18s2.18.991 2.18 2.18z"/><path fill-rule="evenodd" clip-rule="evenodd" fill="#349496" d="M664.833 166.333l17.907-23.948 2.323 20.712-3.679 9.871z"/><path fill-rule="evenodd" clip-rule="evenodd" fill="#72CBCC" d="M690.675 138.512l-7.935 3.873-1.99 30.115 7.625 7 10.875-6 1.125-15.375.244-11.596-2.216.729z"/><path fill-rule="evenodd" clip-rule="evenodd" fill="#4EA9AA" d="M699 178l1.619-31.471 10.061-.642 6.709-8.148 11.256 3.221L723.75 174z"/><path fill-rule="evenodd" clip-rule="evenodd" fill="#1F7678" d="M681 191.5l10.644 19.988 10.22-.502 14.365.502L723 192.75l-24.775-4.683z"/><path fill-rule="evenodd" clip-rule="evenodd" fill="#349496" d="M681 191.5l20.864 19.486-1.864 9.681-18.333-1.834zM701.864 210.986L723 192.75l-.375 11.25.875 18.167-18.833-1.334z"/><path fill-rule="evenodd" clip-rule="evenodd" fill="#94D5D4" d="M690.675 138.512l9.944 8.017-7.057 5.657z"/><path fill-rule="evenodd" clip-rule="evenodd" fill="#72CBCC" d="M709.966 153.863l-9.347-7.334 16.726-8.804z"/><path fill-rule="evenodd" clip-rule="evenodd" fill="#349496" d="M724.625 174.25L723 192.75l-23.75-1.125-3.75-12.25 3.75-5.875z"/><path fill-rule="evenodd" clip-rule="evenodd" fill="#4EA9AA" d="M681 191.5l-.25-19 18.5 1v18.125z"/><path fill="#494749" d="M692.417 89.375l10.75 2.208-.25 1.792-10.391-.419zM684.871 89.587l.044 3.806-9.373 1.19-.334-1.375z"/><path fill="#C3927D" d="M700.59 115.849l-4.84 8.964-10.562.687-5.873-9.097z"/><path fill="#FFF" d="M696.376 117.54l-13.167.482 1.416 2.666 10.688-.438z"/><path fill-rule="evenodd" clip-rule="evenodd" fill="#F5CBB3" d="M692.375 158.75l-27.542 7.583L674.667 181l19.958-15 1.625-4.875zM698.813 157.281l1.5-4.968 10.218.25.344 8.125-6.708 3.27z"/><path fill-rule="evenodd" clip-rule="evenodd" fill="#FEE5D6" d="M692.375 158.75l7.938-6.437 3.854 11.645-9.542 2.042z"/><g fill-rule="evenodd" clip-rule="evenodd"><path fill="#A3A1A1" d="M721.75 206.083l15.625-.5-.375-6.25-15.75 1.625z"/><path fill="#C4C4C2" d="M722.125 198.833l16.5-1.5.25 4.875-17 .375z"/><path fill="#C4C4C2" d="M741.5 212.875l-3.125 10.75-3.75-.5-1.75-60 10.125-2.5z"/><path fill="#D0CECD" d="M744.625 161l-2 60.875-4.25 1.75 1.25-62zM714.5 168.625l4.129 53.216 4.859.318 1.637-54.534z"/><path fill="#C4C4C2" d="M717.5 167.75l1.129 54.091-4.482-.329-2.022-49.637z"/><path fill="#858686" d="M719.5 159.875l-9.5 3.375 4.583 8.75 32.917-9.875v-6.375z"/><path fill="#6F7273" d="M714 162.125L703.375 162l3.563 8.813 7.645 1.187-1.083-7.5z"/><path fill="#8F8F8F" d="M703.375 162l35.375-7.5 8.75 1.25-34 8.75z"/></g><path fill-rule="evenodd" clip-rule="evenodd" fill="#F5CBB3" d="M735.875 162.5l5.625 8.25-2.875 22.125-4.25 3.125-4.625-2.375-2.25-24z"/><path fill-rule="evenodd" clip-rule="evenodd" fill="#C3927D" d="M735.875 162.5l6.75.875-1.125 7.375-13.625 3.375-.375-4.5z"/><path fill-rule="evenodd" clip-rule="evenodd" fill="#349496" d="M720 158.875l8.645-17.915 13.98 22.415-14.75 10.75z"/><path fill-rule="evenodd" clip-rule="evenodd" fill="#F5CBB3" d="M737.625 198.75l2.875 3-6.312 7.563L726 206l3.5-3.625zM731.417 195.583l-1.667-1.958-3.583 4.792 4.666.083z"/><path fill-rule="evenodd" clip-rule="evenodd" fill="#FEE5D6" d="M729.75 193.625l8.875-.75 1.875 8.875-11 .625z"/><g><path fill-rule="evenodd" clip-rule="evenodd" fill="#308FA6" d="M562.523 159.782l-3.273-12.032-12.875 2.75-7 47 20.958-10.667-.277-10.54zM601.443 154.22l.807-5.72 6.375 1.25 13.301 27.555-23.149 3.4z"/><path fill-rule="evenodd" clip-rule="evenodd" fill="#308FA6" d="M597.762 164.581l6.881 14.169L608 213l-28.75 1-24.25.25 1.375-31.875z"/><path fill-rule="evenodd" clip-rule="evenodd" fill="#5EC0D9" d="M572.333 142.5l-6 3.167-7.083 2.083-2.875 34.625 26 15.375 22.268-19 1.732-18.375-4.125-11.875-10.125-1.875z"/><path fill-rule="evenodd" clip-rule="evenodd" fill="#FEE5D6" d="M592.742 75.646L605 80.23l5.913 2.663 8.087 47.19-15.299 5.847-19.805 1.998-8.695-33.94-1.865-15.676 13.287-1.61z"/><path fill-rule="evenodd" clip-rule="evenodd" fill="#F6CBB4" d="M596.057 139.433l2.654-.901-14.19-.281-11.185-49.939-7.865 9.612 2.227 7.461 1.133 4.404-.355 2.985.84 5.074-2.902-2.089-2.341-5.076-2.606 3.998.046 2.925 1.483 2.706 2.125 4.702-1.121-.089.055 6.776 2.278 13.966 19.934 7.608z"/><path fill-rule="evenodd" clip-rule="evenodd" fill="#484848" d="M613.022 97.616l3.324-16.283-6.885-.497z"/><path fill-rule="evenodd" clip-rule="evenodd" fill="#F6CBB4" d="M581.55 100.371l10.731 5.569 5.032 8.06.447-7.302-3.464-5.165-1.725-2.676-3.986-.721zM601.789 97.667l-.059 3.034-.845 3.833 2.014 4.885 7.43-12.882-4.05-1.492z"/><path fill-rule="evenodd" clip-rule="evenodd" fill="#FFF1E9" d="M601.73 100.701l3.708 11.987-2.938 2.125-5.187-.813-3.017-12.467z"/><path fill-rule="evenodd" clip-rule="evenodd" fill="#F6CBB4" d="M567.801 116.22l1.173 2.878-6.609 4.654-4.913-9.291 6.832-5.844z"/><path fill-rule="evenodd" clip-rule="evenodd" fill="#908F8F" d="M601.468 85.998l14.878-4.665-21.872-15.187-12.071 16.215z"/><path fill-rule="evenodd" clip-rule="evenodd" fill="#747474" d="M601.468 85.998l-6.994-19.852-13.224 1.021-13.718 13.075 25.455 6.423z"/><path fill-rule="evenodd" clip-rule="evenodd" fill="#908F8F" d="M592.987 86.665L581.25 67.167l-21.333 2.5-10.494 17.712 13.267 1.83 10.646-.897z"/><path fill-rule="evenodd" clip-rule="evenodd" fill="#747474" d="M549.423 87.379l1.928 19.71 7.719-1.002 6.401-8.163 7.865-9.612z"/><path fill-rule="evenodd" clip-rule="evenodd" fill="#484848" d="M569.097 93.542l3.915 22.821-4.038 2.735-4.69-9.238-6.832 4.601-6.101-7.372z"/><path fill-rule="evenodd" clip-rule="evenodd" fill="#C3937D" d="M560.598 114.81l2.533-1.471 1.651 4.549zM562.365 123.752l3.968-2.585-2.278 10.534zM605.5 112.875l-4 4.5-4.187-3.375z"/><path fill="#2B2C2B" d="M609.664 102.378c0 1.171-.949 2.12-2.12 2.12-1.171 0-2.12-.949-2.12-2.12 0-1.171.949-2.12 2.12-2.12 1.171 0 2.12.949 2.12 2.12zM592.676 104.95c0 1.171-.949 2.12-2.12 2.12s-2.12-.949-2.12-2.12c0-1.171.949-2.12 2.12-2.12s2.12.949 2.12 2.12z"/><path fill-rule="evenodd" clip-rule="evenodd" fill="#C3937D" d="M575.799 139.715l8.449-2.631L619 130.083l-20.006 8.918-12.727 14.274z"/><path fill-rule="evenodd" clip-rule="evenodd" fill="#484848" d="M592.571 98.857l.089-2.959-11.327 2.519.217 1.954zM601.789 97.667L600.6 95.05l9.65-.383.079 1.87z"/><path fill="#C3937D" d="M590.706 119.813l19.718-2.772-7.392 10.412z"/><path fill="#FFF" d="M595.845 120.904l11.07-1.623-4.347 5.506z"/><path fill-rule="evenodd" clip-rule="evenodd" fill="#747474" d="M559.917 69.667l9.833-1.167L584 87.417l-10.664.895z"/></g><g fill-rule="evenodd" clip-rule="evenodd"><path fill="#A3A1A1" d="M607.985 166.049L631.333 169 630 192.5l-33.191 5.25-12.193-16.053 6.097-13.006z"/><path fill="#8F8F8F" d="M599.857 168.894l-34.357-4.227-1.125 25.208 32.434 7.875.609-23.572z"/><path fill="#C4C4C2" d="M565.5 164.667l31.918 9.511L631.333 169l-25.5-8.5z"/></g><path fill-rule="evenodd" clip-rule="evenodd" fill="#F6CBB4" d="M574.083 194.167l3.417-1.25 10-3.167 1.083 3.083-3.583 2.084 11.809 2.833-21.059 7.833z"/><path fill-rule="evenodd" clip-rule="evenodd" fill="#3AA0BA" d="M575.75 205.583l-36.375-8.083 17-15.125 21.125 10.542z"/><path fill-rule="evenodd" clip-rule="evenodd" fill="#FEE5D6" d="M630.313 173.844l1.02-4.844 2.417 10.875-3.5 8.75z"/><path fill-rule="evenodd" clip-rule="evenodd" fill="#F6CBB4" d="M621.083 176.667l10.25-7.667-1.083 19.625-6.917-3.875z"/><path fill-rule="evenodd" clip-rule="evenodd" fill="#FEE5D6" d="M470.547 80.231l1.565 15.065 4.589 28.968-19.746 5.665-14.424 5.647-5.991-3.143-2.364-4.536-10.375-22.318.351-5.503-.316-14.347 32.489-2.116z"/><path fill-rule="evenodd" clip-rule="evenodd" fill="#F5CBB3" d="M426.974 87.674l16.077 44.289 17.142-2.781-8.432 3.129-3.833 4.528-8.03 6.911-4.198-2.912-16.533-14.208 2.024-4.721-2.727-.265-1.538-10.367 7.119-7.195z"/><path fill-rule="evenodd" clip-rule="evenodd" fill="#C3927D" d="M418.464 121.644l7.103-3.923-6.4 8.909zM424.51 115.375l-2.334-4.281-2.831 1.447z"/><path fill-rule="evenodd" clip-rule="evenodd" fill="#4F5353" d="M408.094 91.938l7.656-15.313 17.798-7.705 11.793 10.228 1.327 6.55-19.694 1.976-3.761 3.533-10.085-2.338M418.755 99.169l-.837 4.788-.992 7.32 7.844-3.923 2.205 7.788 5.4-2.892-5.865-11.522z"/><path fill-rule="evenodd" clip-rule="evenodd" fill="#5C5C5C" d="M426.83 92.137l-5.026-.977-11.179 6.59 2.25 4.938 12.22-3.871z"/><path fill-rule="evenodd" clip-rule="evenodd" fill="#5C5C5C" d="M426.83 92.137l-14.205 10.113 4.301 9.027 9.584-10.549z"/><path fill-rule="evenodd" clip-rule="evenodd" fill="#494749" d="M466.067 79.581l3.253 1.431 2.792 14.284 3.749-15.234-9.175-3.075-4.15.723z"/><path fill-rule="evenodd" clip-rule="evenodd" fill="#5C5C5C" d="M444.5 71.125l4.862 10.09 6.168 5.178 20.331-6.331-16.986-12.812z"/><path fill-rule="evenodd" clip-rule="evenodd" fill="#737475" d="M447.5 70.375l8.03 16.018-8.862-.695-13.12-16.778z"/><path fill-rule="evenodd" clip-rule="evenodd" fill="#5C5C5C" d="M408.094 91.938l2.531 5.812 16.205-5.613.144-4.463-13.846 1.195"/><path fill-rule="evenodd" clip-rule="evenodd" fill="#C3927D" d="M466.542 112.735l-16.215 4.009 7.626 4.644 5.857-1.471z"/><path fill-rule="evenodd" clip-rule="evenodd" fill="#FFF" d="M464.105 114.752l-9.944 2.406 4.096 2.41 4.305-1.049z"/><path fill-rule="evenodd" clip-rule="evenodd" fill="#F5CBB3" d="M461.25 93.188l6.563.062-8.6 14.049-3.213 2.368-15.312-9.979 6.25-3.625 4.448.305 1.173 3.179 3.941 3.546 1.611-4.738-.505-3.53z"/><path fill-rule="evenodd" clip-rule="evenodd" fill="#2B2B2B" d="M461.282 100.425c.161 1.192 1.259 2.027 2.45 1.866 1.192-.161 2.027-1.258 1.866-2.45-.161-1.192-1.259-2.027-2.45-1.866-1.192.161-2.028 1.258-1.866 2.45zM447.315 103.579c.367 1.145 1.593 1.776 2.739 1.409 1.145-.367 1.776-1.593 1.409-2.739-.367-1.145-1.593-1.776-2.739-1.409-1.145.368-1.776 1.594-1.409 2.739z"/><path fill-rule="evenodd" clip-rule="evenodd" fill="#C3927D" d="M460.22 106.853l2.03 1.689-2.687 2.796-3.563-1.671z"/><path fill-rule="evenodd" clip-rule="evenodd" fill="#FFF1E9" d="M458.111 98.355l4.139 10.187-6.25 1.125-3.441-10.12z"/><path fill-rule="evenodd" clip-rule="evenodd" fill="#4F5353" d="M457.5 91l.106 3.825 10.207-1.575zM451.386 96.368L450 93.125l-9.312 6.563z"/><path fill-rule="evenodd" clip-rule="evenodd" fill="#C3927D" d="M443.051 131.963l32.358-7.298-21.032 7.546-13.732 13.033-4.945-4.406-1.47-5.881z"/><path fill-rule="evenodd" clip-rule="evenodd" fill="#349496" d="M451.5 146.875l-42-12.25L408.167 160l42.083 8 7.75-6.5z"/><path fill-rule="evenodd" clip-rule="evenodd" fill="#F5CBB3" d="M476.083 143.333l-24.583 3.542L450.25 168l31.25-14.833 2-13.417zM500.583 134.083l-15-.625 2.875 10.25 6 4 8.625-4.625z"/><path fill-rule="evenodd" clip-rule="evenodd" fill="#FEE5D6" d="M485.583 133.458l-9.5 9.875 5.25 10 13.125-5.625z"/><g fill-rule="evenodd" clip-rule="evenodd"><path fill="#8F8F8F" d="M237.75 137.75l-45-24-19.5 12 14.25 85-3.25 43.5L207.5 264l45.75-89z"/><path fill="#C4C4C2" d="M192.75 113.75l70-4.75 4.5 111L207 207.5z"/></g><g><g fill-rule="evenodd" clip-rule="evenodd"><path fill="#FEE5D6" d="M222.018 173.301l-19.685-28.134-11.625 54.416 21.976-8.212 8.983-2.704z"/><path fill="#51A9AB" d="M223.272 154.582l-2.487 12.746-1.363 14.563-29.105-13.903 12.299-31.244zM283.808 129.841l-.153 16.386-1.48 8.813 1.091 18.96 21.567-12.833z"/><path fill="#369496" d="M283.655 146.227l-6.899-4.912-7.377 1.937-6.891 9.76-5.061 10.004-.951 10.88-2.143 26.187 12.394-4.047 16.277-5.354.316-20.343z"/><path fill="#207779" d="M257.427 163.016l-8.665-8.212-10.556-6.684-11.268 2.578-6.654 6.376-.862 24.817-.005 18.109 23.416.667L258 197z"/><path fill="#72CBCC" d="M269.379 143.252l-11.952 19.764-19.221-14.896 17.497-7.52zM228.826 132.888l-26.21 3.856 17.668 20.33 17.922-8.954 5.297-8.639zM261.375 128.625l8.004 14.627 14.276 2.975.153-16.386z"/><path fill="#FEE5D6" d="M313.328 79.05l-13.574 55.677-28.414-4.658-8.081 2.744 1.6.554 4.52 9.885-31.173 4.868-9.38-15.232 14.08-33.67-5.627-12.959 13.769-7.39 8.274 17.175 3.823-.186-8.872-23.584 6.685-3.158z"/><path fill="#F6CBB4" d="M278.352 83.865l6.894 5.319 1.373 20.207 4.679-14.697-.541-9.537zM297.561 87.015l9.613 2.496-14.609 10.836z"/><path fill="#C3937D" d="M270.891 107.76l4.386 12.06 19.599 3.368 3.837-6.047-13.217-1.321z"/><path fill="#F6CBB4" d="M271.719 76.398l-9.694 53.625 1.658 1.923-2.328 4.075-13.338 8.638-19.191-11.771 7.503-22.953 1.597-7.769 2.015-5.492-1.765-12.248 13.979-2.982 6.324 16.024 4.666-1.61-2.978-11.904.037-12.672z"/><path fill="#C3937D" d="M254.759 127.232l6.596 8.789 9.985-5.952zM242.335 98.939l6.585-1.059-12.591 12.055 1.597-7.769zM313.328 79.05l-41.989-.509-10.333-1.291.314-5.472 53.373.477-.267 2.29z"/><path fill="#C3937D" d="M254.759 127.232l3.804 4.614-20.146-.486 5.99-16.354z"/><path fill="#505354" d="M257.857 73.017l2.31 10.937 5.541 13.376-7.229.138-6.891-13.569-11.725 2.446-4.039 2.891-5.26-7.193-1.696-9.013 17.442-8.505z"/><path fill="#484848" d="M307.174 89.511l-4.406-6.01-5.207 3.514zM290.757 85.157l-6.174-5.774-6.231 4.482z"/><path fill="#404040" d="M251.588 83.899l-2.527-8.469-20.193-2.4-1.486-7.9 16.262-.52 15.189 5.51zM239.863 86.345l-9.299-4.302 5.765 27.892 6.006-10.996z"/><path fill="#484848" d="M292.086 110.228l-5.467-.837-7.433 2.058-8.295-3.689 5.393 9.248 18.548 3.377 7.762-6.488-7.446.583zM285.874 125.186l-11.541 10.189 15.209 3z"/><path fill="#C3937D" d="M249.041 87.514l-5.626.783 5.85 6.042z"/><path fill="#FFF1E9" d="M297.561 87.015l-5.475 23.213-5.467-.837 4.138-24.234z"/><path fill="#369496" d="M261.442 73.76l-6.683 53.472-13.134-.179 12.927-55.35 4.281-1.583z"/><path fill="#51A9AB" d="M213.157 61.351l58.562 15.047 6.231-20.575-28.748-6.226z"/><path fill="#72CBCC" d="M273.868 60.739l8.068-6.737 22.154 3.888 33.853 15.635-66.224 2.873z"/><path fill="#51A9AB" d="M304.09 57.89l-26.907-22.706-9.019 15.853 5.704 9.702z"/><path fill="#369496" d="M277.183 35.184l-27.981 14.413 24.666 11.142z"/><path fill="#207779" d="M252.859 120.978l-2.762-3.738-4.397 3.359 3.428 3.879z"/><path fill="#2B2C2B" d="M292.086 110.228l-3.354 3.409-2.113-4.246zM304.306 95.362c-.559 1.143-1.938 1.616-3.081 1.058-1.143-.559-1.616-1.938-1.057-3.081.559-1.143 1.938-1.616 3.081-1.058 1.142.559 1.616 1.938 1.057 3.081zM285.314 91.768c-.559 1.143-1.938 1.616-3.081 1.057-1.143-.559-1.616-1.938-1.057-3.081.559-1.143 1.938-1.616 3.081-1.057 1.143.559 1.616 1.938 1.057 3.081z"/></g><path fill-rule="evenodd" clip-rule="evenodd" fill="#F6CBB4" d="M317.375 142.375L283.266 174l22.234 6.5 21.333-21.667z"/><path fill-rule="evenodd" clip-rule="evenodd" fill="#F4F4F5" d="M289.167 154.833L328 164.417l23.25-50.5-40.5-9z"/><path fill-rule="evenodd" clip-rule="evenodd" fill="#F6CBB4" d="M342.333 137l2.73-9.937-10.23-4.396-3.333 14.5 3.5 11.771z"/><path fill-rule="evenodd" clip-rule="evenodd" fill="#FEE5D6" d="M345.125 127.25L345 137.833l-10.125 11.417z"/></g><g><g fill-rule="evenodd" clip-rule="evenodd"><path fill="#308FA6" d="M498 270l-8.479 32.624-29.021-8.374-16.25-24.5z"/><path fill="#29788C" d="M192.667 264.833l4.803 31.384 20.03-.884 8-21.083z"/><path fill="#3AA0BA" d="M267.833 258l18.667 78.167 29.412-4.86 6.421-33.807 160.167-19 7.021 24.124 26.979-4.457 3.667-71-272.334 23z"/><path fill="#308FA6" d="M176.833 225.5l5.667 64 14.97 6.717 5.53-23.884 54.5 19.167 7.107 34.843 21.893 9.824.667-62z"/><path fill="#C4C4C2" d="M389.5 214.833L530 218.5l-11.146 34.229-231.687 21.438-18-40.667z"/><path fill="#A3A1A1" d="M248.5 223.167L167 202l11.375 41.417 108.792 30.75 3.333-26.417z"/><path fill="#D0CECD" d="M167 202l214.5-21L530 218.5l-239.5 29.25z"/></g></g><g fill-rule="evenodd" clip-rule="evenodd"><path opacity=".1" fill="#2B2B2B" d="M356 199l32.5-4.25 58.5 8.5 22 6.25-58 10.75zM352.333 224.833l-59.041-24.041-29.754 5.322 2.212-4.489-30.125-3.875-44.917 1.833 58.792 10.084 52.5 26z"/><path fill="#ECECEB" d="M296.833 198.333L251 205.875l53.167 24.625 47-9.667z"/><path fill="#DDDDDC" d="M332.333 219.333l-26 6.084-2.916-.917L330 218.25zM323.25 214.417l-27.667 6.166-2.5-1 27.834-6.25zM316.417 210.333L287.5 217l-3-.917 29.583-6.833zM307.083 206l-22.916 4.833-1.75-.916 22.333-5z"/><path fill="#ECECEB" d="M399.708 195.5l11.125 19.375 42.125-6.625-.375-7.412z"/><path fill="#DDDDDC" d="M390.333 195.125l-20.425-4.044.175 7.794 40.75 16 .926-7.875z"/><path fill="#5EC0D9" d="M411.759 207l40.824-6.162L402.516 188l-32.608 3.081z"/><g><path fill="#ECECEB" d="M399.708 186.375l11.125 19.375 42.125-6.625-.375-7.412z"/><path fill="#DDDDDC" d="M390.333 186l-20.425-4.044.175 7.794 40.75 16 .926-7.875z"/><path fill="#5EC0D9" d="M411.759 197.875l40.824-6.162-50.067-12.838-32.608 3.081z"/></g><g><path fill="#ECECEB" d="M399.708 176.875l11.125 19.375 42.125-6.625-.375-7.412z"/><path fill="#DDDDDC" d="M390.333 176.5l-20.425-4.044.175 7.794 40.75 16 .926-7.875z"/><path fill="#5EC0D9" d="M411.759 188.375l40.824-6.162-50.067-12.838-32.608 3.081z"/><path fill="#DDDDDC" d="M434.917 180.333l-21.667 3.25-11.5-3.75 19.583-2.583z"/></g></g><g><g fill-rule="evenodd" clip-rule="evenodd"><path fill="#F6CBB4" d="M249.833 193.75L219.5 182.083l-28.792 17.5 53.959 5.084 7.333-5.5z"/><path fill="#308FA6" d="M273.917 202.625l.625 4.625 8.125 2.75-.5-7.875z"/><path fill="#75CFE3" d="M267.417 189.125l-8-7 4.5-4.125 5.125-1z"/><path fill="#5EC0D9" d="M268.417 192.5l-3.375-11.125 4-4.375 13.125 25.125-3.209 3.25z"/><path fill="#3AA0BA" d="M274.542 207.25l-15.125-25.125 5.625-.75 14 24z"/><path fill="#F6CBB4" d="M262.833 199.333l6.589-10.38 12.745 13.214-6.5 6.666H266z"/><path fill="#FEE5D6" d="M249.833 193.75l19.589-4.797-3.422 19.88-21.333-4.166z"/></g></g><g fill-rule="evenodd" clip-rule="evenodd"><path fill="#3AA0BA" d="M68.902 201.975l-44.136-1.838 3.469 45.864 36.346 12.495 12.982-13.598z"/><path fill="#5EC0D9" d="M61.633 206.018l3.634 9.555-.686 42.923 82.041-6.247 5.878-45.129z"/><path fill="#75CFE3" d="M24.766 200.137l84.885-3.404L152.5 207.12l-87.233 8.453z"/><path opacity=".54" fill="#FFF" d="M65.624 205.358l-27.518.139-1.773 12.003 13.173 4.691 1.18-11.964 22.603-1.391zM104.017 200.164l16.51-.835 12.449 3.061-21.49 1.02z"/><path fill="#3AA0BA" d="M70.652 155.475l-44.136-1.838 3.469 45.864 36.346 12.495 12.982-13.598z"/><path fill="#5EC0D9" d="M63.383 159.518l3.634 9.555-.686 42.923 82.041-6.247 5.878-45.129z"/><path fill="#75CFE3" d="M26.516 153.637l84.885-3.404 42.849 10.387-87.233 8.453z"/><path opacity=".54" fill="#FFF" d="M67.374 158.858l-27.518.139L40 170.75l11.256 4.941 1.18-11.964 22.603-1.391zM105.767 153.664l16.51-.835 12.449 3.061-21.49 1.02z"/><path fill="#3AA0BA" d="M70.402 108.853l-44.136-1.838 3.469 45.864 36.346 12.495 12.982-13.598z"/><path fill="#5EC0D9" d="M63.133 112.895l3.634 9.556-.686 42.923 82.041-6.248L154 113.998z"/><path fill="#75CFE3" d="M26.266 107.015l84.885-3.405L154 113.998l-87.233 8.453z"/><path opacity=".54" fill="#FFF" d="M67.124 112.236l-27.518.139.394 23 9.75 2.125 2.436-20.395 22.603-1.391zM105.517 107.042l16.51-.835 12.449 3.061-21.49 1.02z"/><g><path fill="#75CFE3" d="M792 298l17.5-30-31.5-11.5-50 6 17.5 24z"/><path fill="#3AA0BA" d="M793.5 289.5l-37.667 25.333-30.333-13.666L730 263l23.833 11.167z"/><path fill="#5EC0D9" d="M753.833 274.167l2 40.666 52.667-5.083 1-41.75z"/><path opacity=".54" fill="#FFF" d="M745.667 266l-8.25.417v9.083l7 3.333.75-8.583 7.166-1z"/><path fill="#FFF" d="M778.917 260.667l7.75-1 8.125 2.958-9.459.875z"/></g><g><path fill="#72CBCC" d="M607.364 286.322l-9.531-27.509 62.813-15.926 71.187 10.613-33.933 44.404z"/><path fill="#4EA9AA" d="M636.821 300.8l39.853-26.061 55.159-21.239L732 315l-55.326 24.167z"/><path fill="#349496" d="M597.833 258.813l78.841 15.926v64.428l-76.174-25z"/><path opacity=".54" fill="#FFF" d="M695.75 259.5l14.75 2.125.125 12.875-10.25 4.75-2-12.625-15.5-2.25zM648.667 250.167l-9.167 3.666-13-2.333 14.667-3.667z"/></g><g><path fill="#349496" d="M69.833 234.167l-56.666-3.334 6 43.334 46.666 22.666L82.5 272.167z"/><path fill="#4EA9AA" d="M60.5 241.5l4.667 17.333.666 38L171.167 285.5l6-42z"/><path fill="#72CBCC" d="M13.167 230.833l80-5.333 84 18-112 15.333z"/><path opacity=".54" fill="#FFF" d="M123.417 246.667l7.208 3.333-.458 8-18.5 1.667-.417-6.792-8.5-4.042zM81 229.667l-17.75 1.083-5.75-3 16.375-1z"/></g><g><path fill="#3AA0BA" d="M107.335 268.21l-28.069-1.651 2.206 41.21 23.115 11.227 8.256-12.218z"/><path fill="#5EC0D9" d="M102.712 271.843l2.311 8.585-.436 38.568 52.175-5.613 3.738-40.55z"/><path fill="#75CFE3" d="M79.266 266.559l53.984-3.059 27.25 9.333-55.477 7.595z"/><path opacity=".54" fill="#FFF" d="M105.25 271.25l-17.5.125 1.5 11.25 5.75 3.75.75-10.75 14.375-1.25zM129.667 266.583l10.5-.75 7.916 2.75-13.666.917z"/></g><path opacity=".1" fill="#2B2B2B" d="M106.167 137.542L102.75 182.5l34-3.5-2.375-39.625z"/><path fill="#ECECEB" d="M106.167 137.542l-.25 41.25 34-3.5-2.375-39.625z"/><path fill="#DDDDDC" d="M120.208 141.625l-1.125-8.583 6-.209-.708 7.917zM129.25 148.688l-13.125.375-6.812 6.562 3.687 5.563 3.125-3L116 168.5l15.375-.687-1.125-10.5 3.438 2.312 2.75-5.062z"/></g></svg>