<svg xmlns="http://www.w3.org/2000/svg" width="150" height="150" viewBox="0 0 150 150"><path fill="#559C94" d="M100.25 77.838l1.833 1.287 23.428-36.234 22.656 37.067L150 78.75l-24.512-39.641z"/><path fill="#67A69C" d="M22.5 59.405L0 74l1.708 1.375 22.765-14.753 27.74 20.206 2.321-1.078-30.006-21.563z"/><path fill-rule="evenodd" clip-rule="evenodd" fill="#64D1CC" d="M90.75 33.25L125.5 39l-25.218 4.344L88 42.486z"/><path fill-rule="evenodd" clip-rule="evenodd" fill="#167771" d="M95 52.891L125.5 39 88 42.487z"/><path fill-rule="evenodd" clip-rule="evenodd" fill="#7ED0E2" d="M103.25 130.405L72.84 118.25 46.5 126.5l17 14.25z"/><path fill="#5EBCE6" d="M43 134.5L62.25 150l3.818-9.312-2.568-2.938-17-11.25z"/><path fill="#297795" d="M63.5 137.75L62.25 150l45.499-8-4.5-11.595z"/><path fill-rule="evenodd" clip-rule="evenodd" fill="#4FA8A9" d="M65.409 70.838l.454 56.225L71.84 130l5.7-43.234-3.79-23.516z"/><path fill-rule="evenodd" clip-rule="evenodd" fill="#1E7678" d="M73.75 63.25L88 62l-10.487 66.717L71.84 130z"/><path fill-rule="evenodd" clip-rule="evenodd" fill="#3DA3BC" d="M48 59.405l17.409 11.433L71.75 28l-20.25.891z"/><path fill-rule="evenodd" clip-rule="evenodd" fill="#29798D" d="M69.75 30l7.5-3.5 15-1 8 37.75-34.841 7.588z"/><path fill="#84CFE4" d="M75 0L51.5 28.891 69.75 30l3.796-5.813z"/><path fill="#5EBFDB" d="M75 0l-5.25 30 22.5-4.5z"/><path fill-rule="evenodd" clip-rule="evenodd" fill="#6FC6C2" d="M50.115 42.486L61 46.376l-12.828 6.341L22.5 59.404z"/><path fill-rule="evenodd" clip-rule="evenodd" fill="#127771" d="M61 46.376l1.25 13.028H22.5z"/><path fill="#297B91" d="M0 74l29.5 25.999L25 69.75z"/><path fill-rule="evenodd" clip-rule="evenodd" fill="#61BCD3" d="M25 69.75l29.534 10-19.425 11.126L27.5 103z"/><path fill-rule="evenodd" clip-rule="evenodd" fill="#237B90" d="M100.25 77.838l27.25-7.588 1.276 25.25z"/><path fill="#56C4DB" d="M128.776 95.5l5.634-5.345 15.591-11.405-22.5-8.5z"/><path fill="#67A69C" d="M25.5717397 59.8203104l1.2744205 21.166831-1.9964.1202-1.2744205-21.166831z"/><path fill="#97C5D9" d="M27.5 103l2.125-11.634-3.775-10.317L0 74z"/><path fill-rule="evenodd" clip-rule="evenodd" fill="#277B94" d="M54.534 79.75L27.5 103l-1.651-21.951z"/><path fill="#559C94" d="M127.78 85.674l-3.071-44.341 2.056.492 3.007 43.665z"/><path fill-rule="evenodd" clip-rule="evenodd" fill="#78D3E7" d="M100.25 77.838l28.526 6.744-.436 9.376-4.84 10.933z"/><path fill="#327084" d="M128.776 84.583l-5.277 20.308 26.502-26.141z"/></svg>